<?xml version="1.0" encoding="UTF-8"?>
<svg id="Camada_2" data-name="Camada 2" xmlns="http://www.w3.org/2000/svg" viewBox="0 0 594.4 440.46">
  <defs>
    <style>
      .cls-1 {
        fill-rule: evenodd;
      }

      .cls-1, .cls-2 {
        fill: #ac3436;
      }

      .cls-3 {
        fill: #2c2f35;
      }
    </style>
  </defs>
  <g id="Camada_1-2" data-name="Camada 1">
    <g>
      <g>
        <g>
          <path class="cls-1" d="M579.88,124.22c-5,1.24-17.74-9.41-15.18-16.95,1.26-3.5,2.77-8.83,4.4-13.66,1.04-2.92,2.96-4.45,5.63-5.12,2.67-.66,5.75-.37,8.88.1,3.54.72,9.58,3.64,9.7,6.98.12,1.21-.46,2.42-1.55,2.33-1.42,0-2,1.2-2.42,1.66-1.59,2.17-7.53,14.61-7.33,21.12,0,2.12-.8,3.21-2.13,3.54ZM442,238.45c5.5-1.37,12.65-13.23,13.62-19.31-9.37-3.52-14.9-10.11-17.84-19.83-.71-2.83-1.24-5.71-1.16-8.21-3.22,5.58-10.63,51.32,5.38,47.35ZM458.59,210.43c4.06-10.04,8.62-45.87-3.05-42.97-14.34,3.56-6.62,41.83,3.05,42.97ZM262.38,223.01c-.25-1-1.41-2.13-2.58-1.84-6.63,1.82-13.03,15.27-16.55,29.6,8.63-2.32,21.91-17.29,19.13-27.76ZM216.51,214.39c-5.01,1.24-17.74-9.4-15.18-16.95,1.26-3.5,2.77-8.83,4.4-13.66,1.04-2.92,2.97-4.45,5.63-5.12,2.67-.66,5.75-.36,8.88.1,3.54.72,9.58,3.64,9.7,6.98.12,1.21-.46,2.42-1.55,2.33-1.42,0-2,1.2-2.42,1.66-1.59,2.17-7.53,14.62-7.33,21.12,0,2.13-.8,3.21-2.13,3.54ZM195.66,224.52c4.63-1.33,12.54,2.02,15.74,4.94,2.79,2.67,3.24,5.92-.34,6.46-7.8,2.11-15.59,50.61-14.27,55.94.29,1.17,1.12,2.38,2.46,2.05,5.09-1.39,15.22-20.21,20.64-31.08,2.47-21.82,17.08-50.55,34.3-54.96,6.84-1.7,20.2,4.37,22.11,12.04,3.52,14.88-9.56,31.41-26.06,35.5-2.67.66-5.25.95-8.09.94-1.57,8.65-1.89,17.37-.19,23.48,1.77,6.43,6.14,8.33,11.47,7.01,12-2.98,27.01-24.67,35.12-39.63.04-.2.11-.42.2-.65.54-1.37,9.79-21.9,13.94-35.86-4-1.84-7.16-4.6-8.07-8.97-.46-1.84-.32-6.29.02-8.5,2.01-9.71,3.07-16.16,10.57-18.03,1.67-.41,3.71-.74,6.04-.62,3.58.17,9.96,2.31,10.62,5.69.12,1.21-.46,2.42-1.5,2.5-1.21.12-1.75,1.5-2.01,1.92-1.13,1.87-4.1,9.16-4.86,15.37,2.96-1.62,5.92-3.95,9.39-6.4,5.25-.95,17.41,4.53,18.36,8.37.95,4.54-3.62,18.24-5,22.66-4.07,14.99-8.05,30.33-7.06,34.33.33,1.33,1.29,2.34,2.62,2,7.3-1.99,25.98-54.42,28.91-64.71-4-1.84-7.16-4.6-8.07-8.98-.45-1.84-.32-6.29.02-8.5,2.02-9.71,3.07-16.16,10.58-18.02,1.66-.42,3.71-.75,6.04-.62,3.58.17,9.96,2.31,10.62,5.69.12,1.21-.46,2.42-1.51,2.5-1.21.12-1.75,1.49-2,1.91-1.13,1.88-4.1,9.16-4.86,15.37,2.96-1.62,5.92-3.95,9.38-6.4,5.25-.95,17.41,4.53,18.36,8.37.95,4.55-3.62,18.25-5,22.66-4.07,14.99-8.05,30.32-7.06,34.32.33,1.33,1.29,2.34,2.62,2.01,5.24-1.43,15.81-21.32,21.11-32.01,1.22-21,10.6-48.13,23.5-51.46,5.67-1.41,9.5-.94,13.62,1.4,0,0,3.22-5.58,8.55-6.91,10.55-2.44,19.86,10.83,21.18,17.58,1.74,9.13.63,22.51-2.94,35.25,6.21-3.1,11.94-9.27,15.86-15.52,2.44-16.31,6.56-35.47,7.95-41.2-6.75,1.32-15.22,3.6-15.04-4.24.26-4.66,1.1-7.7,3.27-8.24.83-.21,1.96.05,3.21.8,3.25.25,7.29.14,11.46-.19,5.16-19.87,11.36-36.99,17.65-38.72,4.63-1.33,10.54,2.52,13.58,5.48,2.96,2.63,3.41,5.88-.18,6.42-3.67.91-7.56,10.91-11.12,23.65,8.59-1.78,16.05-3.81,18.72-5.18,1.42-.71,2.25-.21,2.87.88.75.88,1.2,2.71-.3,3.79-4.84,4.03-13.85,7.68-23.9,10.71-2.15,9.18-12.59,57-10.23,66.48.66,3.38,2.61,5.52,5.4,4.65,7.56-1.88,20.14-23.18,26.79-36.37,3.37-21.19,11.88-47.51,18.16-49.31,4.62-1.32,12.54,2.02,15.74,4.95,2.79,2.67,3.24,5.92-.35,6.46-7.8,2.11-15.59,50.61-14.26,55.94.29,1.17,1.12,2.38,2.46,2.05,6.96-1.9,23.36-36.42,24.24-38.59.71-1.41,1.3-1.91,2.42-1.66,1.17.42,3,1.38,2.54,3.09-5.9,16.16-12.39,29.98-20.33,45.76-4.6,8.58-7.23,9.4-8.72,9.78-7,1.74-20.99-8.96-22.69-15.79-.37-1.47-.57-3.3-.64-5.4-7.23,15.11-16.89,30.73-26.87,33.64-4.8,1.37-10.17-1.02-14.62-4.69-5.37-4.51-7.73-7.61-8.68-11.45-.53-2.15-.49-6-.08-10.8-4.46,5.4-10.14,9.76-17.31,12.08-5.9,15.45-15.34,28.77-27.85,31.87-13.01,3.23-29.61-10.89-32.09-21.6-.14-.59-.27-1.2-.38-1.82-3.87,8.98-8.12,17.74-13,27.1-4.39,8.7-7.06,9.36-8.56,9.73-8.63,2.32-22.2-9.54-23.93-16.54-2.61-10.5,7.4-36.53,11.46-50.11-2.92.37-6.29.32-9.79-.23-4.15,11.12-8.12,21.49-11.94,31.82-4.81,12.7-9.05,27.74-15.28,39.73-4.39,8.71-7.06,9.36-8.56,9.74-8.63,2.32-22.19-9.54-23.93-16.54-2.61-10.5,7.4-36.53,11.47-50.11-2.92.37-6.29.32-9.79-.23-4.31,11.86-11.16,27-15.63,36.78-7.88,19.33-21.02,44.42-39.31,49.26-12.17,3.02-30.82-7.19-34.32-21.31-.03-.12-.06-.25-.09-.37-3.71,8.44-7.74,16.73-12.23,25.65-4.6,8.58-7.23,9.41-8.72,9.78-7,1.74-20.99-8.95-22.69-15.79-3.85-15.51,9.87-69.37,18.96-71.98ZM1.49,258.19c-12.95-52.19,61.85-100.32,103.67-111.58,51.66-13.7,74.41,9.51,79.53,35.14,7.64,37.94-38.59,94.2-88.95,106.69-2.21.37-4.33.37-6.17.12-5.38,28.95-7.97,55.62-3.69,62.88,3.41,2.34,3.74,5.8-.26,6.79-1,.25-2.38.41-4.21.16-5.67-.72-16.29-4.28-18.61-12.91-7.95-29.18,25.58-162.31,44.92-167.11,4.67-1.16,10.21,1.19,13.24,4.15,2.79,2.67,3.41,5.88-.34,6.46-6.17,1.53-18.45,40.52-27.1,79.84,47.05-22.3,75.8-71.92,69.89-98.6-3.35-14.22-16.55-21.74-42.31-14.99-30.72,8.15-58.19,32.32-76.06,56.58-7.94,10.82-24.65,37.63-21.18,51.64,1.08,4.33,5.11,8.47,13.44,9.23,8.05-2.53,7.49,5.22,1.11,6.63-18.43,4.22-33.74-8.27-36.93-21.11Z"/>
          <path class="cls-2" d="M514.71,271.82c-9.63,40.09-30.21,75.93-58.42,104.13-39.85,39.85-94.91,64.5-155.72,64.5-56.43,0-107.9-21.22-146.87-56.12l9.67-3.74c36.89,31.59,84.81,50.68,137.19,50.68,58.28,0,111.04-23.62,149.23-61.81,26.59-26.59,46.12-60.25,55.52-97.92l9.39.28ZM300.56,0c60.81,0,115.87,24.65,155.72,64.5,10.58,10.58,20.09,22.23,28.35,34.78l-9.07,2.95c-7.58-11.23-16.22-21.68-25.77-31.23-38.19-38.19-90.95-61.81-149.23-61.81s-111.04,23.62-149.23,61.81c-17.27,17.27-31.56,37.52-42.04,59.91l-9.28-1.81c11.01-24.19,26.27-46.04,44.82-64.6C184.69,24.65,239.74,0,300.56,0Z"/>
          <path class="cls-2" d="M435.66,286.91c-7.33,14.82-17.02,28.26-28.59,39.83-27.26,27.26-64.91,44.12-106.51,44.12-25.36,0-49.25-6.27-70.22-17.33l8.52-2.77c18.71,8.86,39.62,13.81,61.7,13.81,39.86,0,75.95-16.16,102.06-42.28,9.62-9.62,17.89-20.6,24.5-32.62l8.53-2.77ZM300.56,69.6c41.59,0,79.25,16.86,106.51,44.12,2.65,2.65,5.2,5.4,7.65,8.24l-6.5,2.11c-1.81-2.03-3.67-4-5.59-5.92-26.12-26.12-62.21-42.28-102.06-42.28s-75.95,16.16-102.07,42.28c-5.82,5.82-11.15,12.14-15.91,18.88l-6.73-1.31c5.37-7.91,11.47-15.28,18.2-22.01,27.26-27.26,64.92-44.12,106.51-44.12Z"/>
          <path class="cls-1" d="M553.42,249.33c-.7.12-1.41.25-2.11.37-.18,2.11,2.75,1.6,2.11-.37ZM403.37,265.24c13.69-4.56,30.28-5.42,44.91-9.92.06.51.12,1.01.17,1.52,1.2-.13.81-1.69,1.93-1.89,1.48-.77.48,2.43,2.28,1.15.57-.28-.07-.9-.54-.94.83-.27,2.55-.52,3.55.93,1.4-.46-1.35-1.77.67-1.67,6.97.48,14.49-4.58,22.59-1.88,12.8-2.88,27.49-4.79,42.3-6.37,3.2-.34,6.12-.12,8.49-.97,2.15-.77,6.36-.73,8.92-1.04,2.83-.35,6.03.65,8.18.12-1.29.32,5.72-3.1,5.12-.38,5.19-2.82,12.27-1.13,17.78-2.59.87-.4.89.58,1.02,1.37.99-2.24,3.75-.27,4.47-2.33.85,3.07,2.71-1.65,4.03,1.36,2.02-2.92,5.44-.51,8.55-.46,2.19.03,5.66-2.14,6.62,1.43-2.32.51-5.31,3-12.65,2.21,1.3,1.02-3.41,2.28-3.85.16-1.41,3.64-7.07.61-8.09,4.52-1.47-.21-.18-1.12-1.08-1.88-5.29,2.59-9.13.71-14.4,2.01,3.46,2.9,7.47,2.82,11.79,1.55,1.43-.21.2,1.15,1.49,1.81,1.43-.77.68-1.01,1.04-2.25,6.45,1.7,17.28-1.6,24.14.43-5.25.63-12.3,3.91-16.98,1.94-6.93,2.14-18.71,4.16-27.9,4.36-.61.02-1.92.79-.96-.87-1.58,1.7-3.66,1.32-6.27,1.61-41.66,4.72-89.27,15.46-128,24.46-43.39,10.08-83.98,21.28-126.73,35.61-66.45,22.29-127.14,53.23-185.61,81.59-5.31,2.57-10.39,5.74-15.93,7.45-1.53-.04-3.19-2.11-2.21-4.27-2.25.09-3.09,1.45-5.42,1.47-.96-1.06-1.53-2.76-2.21-4.27,1.43-2.81,3.43-5.1,6.11-6.76.68-1.1-.1-1.28-.29-2.53,13.43-11.5,29.26-22.25,46.62-28.84,28.28-10.74,56.74-25.71,84.48-36.5,6.67-2.6,12.69-3.91,19.96-6.08,9.01-2.69,20.36-8.08,31.54-10.17,6.92-1.3,14.64-5.53,22.74-8.11,38.62-12.34,83.34-26.21,122.04-35.31-1.21-3.36-2.98.3-4.39-.78Z"/>
        </g>
        <g>
          <path class="cls-3" d="M579.88,124.22c-5,1.24-17.74-9.41-15.18-16.95,1.26-3.5,2.77-8.83,4.4-13.66,1.04-2.92,2.96-4.45,5.63-5.12,2.67-.66,5.75-.37,8.88.1,3.54.72,9.58,3.64,9.7,6.98.12,1.21-.46,2.42-1.55,2.33-1.42,0-2,1.2-2.42,1.66-1.59,2.17-7.53,14.61-7.33,21.12,0,2.12-.8,3.21-2.13,3.54ZM442,238.45c5.5-1.37,12.65-13.23,13.62-19.31-9.37-3.52-14.9-10.11-17.84-19.83-.71-2.83-1.24-5.71-1.16-8.21-3.22,5.58-10.63,51.32,5.38,47.35ZM458.59,210.43c4.06-10.04,8.62-45.87-3.05-42.97-14.34,3.56-6.62,41.83,3.05,42.97ZM262.38,223.01c-.25-1-1.41-2.13-2.58-1.84-6.63,1.82-13.03,15.27-16.55,29.6,8.63-2.32,21.91-17.29,19.13-27.76ZM216.51,214.39c-5.01,1.24-17.74-9.4-15.18-16.95,1.26-3.5,2.77-8.83,4.4-13.66,1.04-2.92,2.97-4.45,5.63-5.12,2.67-.66,5.75-.36,8.88.1,3.54.72,9.58,3.64,9.7,6.98.12,1.21-.46,2.42-1.55,2.33-1.42,0-2,1.2-2.42,1.66-1.59,2.17-7.53,14.62-7.33,21.12,0,2.13-.8,3.21-2.13,3.54ZM195.66,224.52c4.63-1.33,12.54,2.02,15.74,4.94,2.79,2.67,3.24,5.92-.34,6.46-7.8,2.11-15.59,50.61-14.27,55.94.29,1.17,1.12,2.38,2.46,2.05,5.09-1.39,15.22-20.21,20.64-31.08,2.47-21.82,17.08-50.55,34.3-54.96,6.84-1.7,20.2,4.37,22.11,12.04,3.52,14.88-9.56,31.41-26.06,35.5-2.67.66-5.25.95-8.09.94-1.57,8.65-1.89,17.37-.19,23.48,1.77,6.43,6.14,8.33,11.47,7.01,12-2.98,27.01-24.67,35.12-39.63.04-.2.11-.42.2-.65.54-1.37,9.79-21.9,13.94-35.86-4-1.84-7.16-4.6-8.07-8.97-.46-1.84-.32-6.29.02-8.5,2.01-9.71,3.07-16.16,10.57-18.03,1.67-.41,3.71-.74,6.04-.62,3.58.17,9.96,2.31,10.62,5.69.12,1.21-.46,2.42-1.5,2.5-1.21.12-1.75,1.5-2.01,1.92-1.13,1.87-4.1,9.16-4.86,15.37,2.96-1.62,5.92-3.95,9.39-6.4,5.25-.95,17.41,4.53,18.36,8.37.95,4.54-3.62,18.24-5,22.66-4.07,14.99-8.05,30.33-7.06,34.33.33,1.33,1.29,2.34,2.62,2,7.3-1.99,25.98-54.42,28.91-64.71-4-1.84-7.16-4.6-8.07-8.98-.45-1.84-.32-6.29.02-8.5,2.02-9.71,3.07-16.16,10.58-18.02,1.66-.42,3.71-.75,6.04-.62,3.58.17,9.96,2.31,10.62,5.69.12,1.21-.46,2.42-1.51,2.5-1.21.12-1.75,1.49-2,1.91-1.13,1.88-4.1,9.16-4.86,15.37,2.96-1.62,5.92-3.95,9.38-6.4,5.25-.95,17.41,4.53,18.36,8.37.95,4.55-3.62,18.25-5,22.66-4.07,14.99-8.05,30.32-7.06,34.32.33,1.33,1.29,2.34,2.62,2.01,5.24-1.43,15.81-21.32,21.11-32.01,1.22-21,10.6-48.13,23.5-51.46,5.67-1.41,9.5-.94,13.62,1.4,0,0,3.22-5.58,8.55-6.91,10.55-2.44,19.86,10.83,21.18,17.58,1.74,9.13.63,22.51-2.94,35.25,6.21-3.1,11.94-9.27,15.86-15.52,2.44-16.31,6.56-35.47,7.95-41.2-6.75,1.32-15.22,3.6-15.04-4.24.26-4.66,1.1-7.7,3.27-8.24.83-.21,1.96.05,3.21.8,3.25.25,7.29.14,11.46-.19,5.16-19.87,11.36-36.99,17.65-38.72,4.63-1.33,10.54,2.52,13.58,5.48,2.96,2.63,3.41,5.88-.18,6.42-3.67.91-7.56,10.91-11.12,23.65,8.59-1.78,16.05-3.81,18.72-5.18,1.42-.71,2.25-.21,2.87.88.75.88,1.2,2.71-.3,3.79-4.84,4.03-13.85,7.68-23.9,10.71-2.15,9.18-12.59,57-10.23,66.48.66,3.38,2.61,5.52,5.4,4.65,7.56-1.88,20.14-23.18,26.79-36.37,3.37-21.19,11.88-47.51,18.16-49.31,4.62-1.32,12.54,2.02,15.74,4.95,2.79,2.67,3.24,5.92-.35,6.46-7.8,2.11-15.59,50.61-14.26,55.94.29,1.17,1.12,2.38,2.46,2.05,6.96-1.9,23.36-36.42,24.24-38.59.71-1.41,1.3-1.91,2.42-1.66,1.17.42,3,1.38,2.54,3.09-5.9,16.16-12.39,29.98-20.33,45.76-4.6,8.58-7.23,9.4-8.72,9.78-7,1.74-20.99-8.96-22.69-15.79-.37-1.47-.57-3.3-.64-5.4-7.23,15.11-16.89,30.73-26.87,33.64-4.8,1.37-10.17-1.02-14.62-4.69-5.37-4.51-7.73-7.61-8.68-11.45-.53-2.15-.49-6-.08-10.8-4.46,5.4-10.14,9.76-17.31,12.08-5.9,15.45-15.34,28.77-27.85,31.87-13.01,3.23-29.61-10.89-32.09-21.6-.14-.59-.27-1.2-.38-1.82-3.87,8.98-8.12,17.74-13,27.1-4.39,8.7-7.06,9.36-8.56,9.73-8.63,2.32-22.2-9.54-23.93-16.54-2.61-10.5,7.4-36.53,11.46-50.11-2.92.37-6.29.32-9.79-.23-4.15,11.12-8.12,21.49-11.94,31.82-4.81,12.7-9.05,27.74-15.28,39.73-4.39,8.71-7.06,9.36-8.56,9.74-8.63,2.32-22.19-9.54-23.93-16.54-2.61-10.5,7.4-36.53,11.47-50.11-2.92.37-6.29.32-9.79-.23-4.31,11.86-11.16,27-15.63,36.78-7.88,19.33-21.02,44.42-39.31,49.26-12.17,3.02-30.82-7.19-34.32-21.31-.03-.12-.06-.25-.09-.37-3.71,8.44-7.74,16.73-12.23,25.65-4.6,8.58-7.23,9.41-8.72,9.78-7,1.74-20.99-8.95-22.69-15.79-3.85-15.51,9.87-69.37,18.96-71.98ZM1.49,258.19c-12.95-52.19,61.85-100.32,103.67-111.58,51.66-13.7,74.41,9.51,79.53,35.14,7.64,37.94-38.59,94.2-88.95,106.69-2.21.37-4.33.37-6.17.12-5.38,28.95-7.97,55.62-3.69,62.88,3.41,2.34,3.74,5.8-.26,6.79-1,.25-2.38.41-4.21.16-5.67-.72-16.29-4.28-18.61-12.91-7.95-29.18,25.58-162.31,44.92-167.11,4.67-1.16,10.21,1.19,13.24,4.15,2.79,2.67,3.41,5.88-.34,6.46-6.17,1.53-18.45,40.52-27.1,79.84,47.05-22.3,75.8-71.92,69.89-98.6-3.35-14.22-16.55-21.74-42.31-14.99-30.72,8.15-58.19,32.32-76.06,56.58-7.94,10.82-24.65,37.63-21.18,51.64,1.08,4.33,5.11,8.47,13.44,9.23,8.05-2.53,7.49,5.22,1.11,6.63-18.43,4.22-33.74-8.27-36.93-21.11Z"/>
          <path class="cls-3" d="M514.71,271.82c-9.63,40.09-30.21,75.93-58.42,104.13-39.85,39.85-94.91,64.5-155.72,64.5-56.43,0-107.9-21.22-146.87-56.12l9.67-3.74c36.89,31.59,84.81,50.68,137.19,50.68,58.28,0,111.04-23.62,149.23-61.81,26.59-26.59,46.12-60.25,55.52-97.92l9.39.28ZM300.56,0c60.81,0,115.87,24.65,155.72,64.5,10.58,10.58,20.09,22.23,28.35,34.78l-9.07,2.95c-7.58-11.23-16.22-21.68-25.77-31.23-38.19-38.19-90.95-61.81-149.23-61.81s-111.04,23.62-149.23,61.81c-17.27,17.27-31.56,37.52-42.04,59.91l-9.28-1.81c11.01-24.19,26.27-46.04,44.82-64.6C184.69,24.65,239.74,0,300.56,0Z"/>
          <path class="cls-3" d="M435.66,286.91c-7.33,14.82-17.02,28.26-28.59,39.83-27.26,27.26-64.91,44.12-106.51,44.12-25.36,0-49.25-6.27-70.22-17.33l8.52-2.77c18.71,8.86,39.62,13.81,61.7,13.81,39.86,0,75.95-16.16,102.06-42.28,9.62-9.62,17.89-20.6,24.5-32.62l8.53-2.77ZM300.56,69.6c41.59,0,79.25,16.86,106.51,44.12,2.65,2.65,5.2,5.4,7.65,8.24l-6.5,2.11c-1.81-2.03-3.67-4-5.59-5.92-26.12-26.12-62.21-42.28-102.06-42.28s-75.95,16.16-102.07,42.28c-5.82,5.82-11.15,12.14-15.91,18.88l-6.73-1.31c5.37-7.91,11.47-15.28,18.2-22.01,27.26-27.26,64.92-44.12,106.51-44.12Z"/>
          <path class="cls-3" d="M553.42,249.33c-.7.12-1.41.25-2.11.37-.18,2.11,2.75,1.6,2.11-.37ZM403.37,265.24c13.69-4.56,30.28-5.42,44.91-9.92.06.51.12,1.01.17,1.52,1.2-.13.81-1.69,1.93-1.89,1.48-.77.48,2.43,2.28,1.15.57-.28-.07-.9-.54-.94.83-.27,2.55-.52,3.55.93,1.4-.46-1.35-1.77.67-1.67,6.97.48,14.49-4.58,22.59-1.88,12.8-2.88,27.49-4.79,42.3-6.37,3.2-.34,6.12-.12,8.49-.97,2.15-.77,6.36-.73,8.92-1.04,2.83-.35,6.03.65,8.18.12-1.29.32,5.72-3.1,5.12-.38,5.19-2.82,12.27-1.13,17.78-2.59.87-.4.89.58,1.02,1.37.99-2.24,3.75-.27,4.47-2.33.85,3.07,2.71-1.65,4.03,1.36,2.02-2.92,5.44-.51,8.55-.46,2.19.03,5.66-2.14,6.62,1.43-2.32.51-5.31,3-12.65,2.21,1.3,1.02-3.41,2.28-3.85.16-1.41,3.64-7.07.61-8.09,4.52-1.47-.21-.18-1.12-1.08-1.88-5.29,2.59-9.13.71-14.4,2.01,3.46,2.9,7.47,2.82,11.79,1.55,1.43-.21.2,1.15,1.49,1.81,1.43-.77.68-1.01,1.04-2.25,6.45,1.7,17.28-1.6,24.14.43-5.25.63-12.3,3.91-16.98,1.94-6.93,2.14-18.71,4.16-27.9,4.36-.61.02-1.92.79-.96-.87-1.58,1.7-3.66,1.32-6.27,1.61-41.66,4.72-89.27,15.46-128,24.46-43.39,10.08-83.98,21.28-126.73,35.61-66.45,22.29-127.14,53.23-185.61,81.59-5.31,2.57-10.39,5.74-15.93,7.45-1.53-.04-3.19-2.11-2.21-4.27-2.25.09-3.09,1.45-5.42,1.47-.96-1.06-1.53-2.76-2.21-4.27,1.43-2.81,3.43-5.1,6.11-6.76.68-1.1-.1-1.28-.29-2.53,13.43-11.5,29.26-22.25,46.62-28.84,28.28-10.74,56.74-25.71,84.48-36.5,6.67-2.6,12.69-3.91,19.96-6.08,9.01-2.69,20.36-8.08,31.54-10.17,6.92-1.3,14.64-5.53,22.74-8.11,38.62-12.34,83.34-26.21,122.04-35.31-1.21-3.36-2.98.3-4.39-.78Z"/>
        </g>
      </g>
      <g>
        <g>
          <path class="cls-2" d="M172.98,69.9l13.9-10.18c3.42-2.51,6.8-3.54,9.77-3.08,2.37.37,4.28,1.53,5.78,3.58l.06.08c2.47,3.38,2.06,6.58.8,9.34,4.43-1.21,8.04-.77,10.99,3.25l.06.08c4.01,5.47,1.57,11.47-5.19,16.42l-14.24,10.43-21.93-29.93ZM196.69,66.13c-1.44-1.97-3.79-1.95-6.57.09l-6.5,4.76,4.64,6.33,6.07-4.45c2.91-2.13,4.06-4.42,2.43-6.64l-.06-.09ZM199.88,77.2l-7.61,5.58,4.82,6.58,7.82-5.73c2.91-2.13,3.91-4.44,2.28-6.66l-.06-.08c-1.47-2.01-3.88-2.15-7.25.32Z"/>
          <path class="cls-2" d="M214.37,66.45l-8.7-19.34,7.44-3.35,8.61,19.14c2.48,5.51,6.52,7.12,11.06,5.08s6.06-6.04,3.65-11.4l-8.72-19.38,7.44-3.35,8.59,19.09c4.61,10.25,1.12,17.86-7.97,21.95s-16.93,1.51-21.41-8.45Z"/>
          <path class="cls-2" d="M245,30.91l27.55-6.22,1.63,7.24-19.59,4.42,1.74,7.7,17.27-3.9,1.63,7.24-17.27,3.9,3.16,14.01-7.96,1.8-8.17-36.19Z"/>
          <path class="cls-2" d="M280.43,23.87l28.23-1.11.29,7.41-20.07.79.31,7.89,17.69-.69.29,7.42-17.69.69.56,14.35-8.16.32-1.45-37.07Z"/>
          <path class="cls-2" d="M316.55,23.36l27.69,4.03-1.04,7.19-19.67-2.86-1.08,7.45,17.31,2.52-1.04,7.18-17.31-2.52-1.12,7.71,19.93,2.9-1.04,7.19-27.95-4.07,5.34-36.71Z"/>
          <path class="cls-2" d="M358.66,39.58l-10.68-3.65,2.44-7.12,29.08,9.95-2.44,7.12-10.68-3.65-9.57,27.98-7.72-2.64,9.57-27.98Z"/>
        </g>
        <g>
          <path class="cls-3" d="M172.98,69.9l13.9-10.18c3.42-2.51,6.8-3.54,9.77-3.08,2.37.37,4.28,1.53,5.78,3.58l.06.08c2.47,3.38,2.06,6.58.8,9.34,4.43-1.21,8.04-.77,10.99,3.25l.06.08c4.01,5.47,1.57,11.47-5.19,16.42l-14.24,10.43-21.93-29.93ZM196.69,66.13c-1.44-1.97-3.79-1.95-6.57.09l-6.5,4.76,4.64,6.33,6.07-4.45c2.91-2.13,4.06-4.42,2.43-6.64l-.06-.09ZM199.88,77.2l-7.61,5.58,4.82,6.58,7.82-5.73c2.91-2.13,3.91-4.44,2.28-6.66l-.06-.08c-1.47-2.01-3.88-2.15-7.25.32Z"/>
          <path class="cls-3" d="M214.37,66.45l-8.7-19.34,7.44-3.35,8.61,19.14c2.48,5.51,6.52,7.12,11.06,5.08s6.06-6.04,3.65-11.4l-8.72-19.38,7.44-3.35,8.59,19.09c4.61,10.25,1.12,17.86-7.97,21.95s-16.93,1.51-21.41-8.45Z"/>
          <path class="cls-3" d="M245,30.91l27.55-6.22,1.63,7.24-19.59,4.42,1.74,7.7,17.27-3.9,1.63,7.24-17.27,3.9,3.16,14.01-7.96,1.8-8.17-36.19Z"/>
          <path class="cls-3" d="M280.43,23.87l28.23-1.11.29,7.41-20.07.79.31,7.89,17.69-.69.29,7.42-17.69.69.56,14.35-8.16.32-1.45-37.07Z"/>
          <path class="cls-3" d="M316.55,23.36l27.69,4.03-1.04,7.19-19.67-2.86-1.08,7.45,17.31,2.52-1.04,7.18-17.31-2.52-1.12,7.71,19.93,2.9-1.04,7.19-27.95-4.07,5.34-36.71Z"/>
          <path class="cls-3" d="M358.66,39.58l-10.68-3.65,2.44-7.12,29.08,9.95-2.44,7.12-10.68-3.65-9.57,27.98-7.72-2.64,9.57-27.98Z"/>
        </g>
      </g>
      <g>
        <g>
          <path class="cls-2" d="M233.55,369.91l26.35,9.42-2.44,6.84-18.72-6.69-2.53,7.09,16.47,5.89-2.44,6.84-16.47-5.89-2.62,7.34,18.97,6.78-2.44,6.84-26.6-9.51,12.49-34.94Z"/>
          <path class="cls-2" d="M260.94,380l8.93,1.18,6.18,27.18,13.05-24.62,8.72,1.16-19.78,35.06-7.14-.95-9.95-39.01Z"/>
          <path class="cls-2" d="M299.46,384.4l27.92-1.94.5,7.24-19.83,1.38.52,7.51,17.45-1.21.5,7.24-17.45,1.21.54,7.77,20.09-1.4.5,7.24-28.18,1.96-2.57-37.01Z"/>
          <path class="cls-2" d="M330.65,382.09l7.23-2.08,23.02,17.15-6.31-21.95,7.74-2.23,10.25,35.65-6.67,1.92-23.79-17.7,6.52,22.67-7.74,2.23-10.25-35.65Z"/>
          <path class="cls-2" d="M377.69,373.46l-9.97,5.29-3.53-6.65,27.15-14.41,3.53,6.65-9.97,5.29,13.86,26.12-7.21,3.83-13.86-26.12Z"/>
          <path class="cls-2" d="M400.8,374.2l-.07-.08c-6.65-8.18-5.65-20.13,3.24-27.36,8.88-7.22,20.64-5.78,27.29,2.4l.07.08c6.65,8.18,5.65,20.13-3.24,27.36-8.88,7.22-20.64,5.78-27.29-2.4ZM424.78,354.71l-.07-.08c-4.01-4.93-10.97-6.11-16.07-1.96s-5.36,11.05-1.35,15.99l.07.08c4.01,4.93,10.97,6.1,16.07,1.96s5.36-11.05,1.35-15.99Z"/>
          <path class="cls-2" d="M440.98,357.49l-1.31-7.41c4.26-.78,7.85-2.33,10.58-5.57,2.15-2.55,2.44-4.95.77-6.35l-.08-.07c-1.58-1.33-3.21-1.04-8.42,2.68-6.27,4.49-10.96,6.85-16.59,2.1l-.08-.07c-5.15-4.33-5.07-11.34-.19-17.13,3.48-4.14,7.75-6.57,12.48-7.5l1.97,7.2c-3.86,1.05-7,2.63-9.01,5.02-2.01,2.39-1.98,4.57-.6,5.73l.08.07c1.87,1.57,3.5.87,8.88-2.98,6.35-4.49,11.14-6,16.09-1.83l.08.07c5.63,4.75,5.18,11.71.03,17.83-3.62,4.3-8.77,7.37-14.68,8.22Z"/>
        </g>
        <g>
          <path class="cls-3" d="M233.55,369.91l26.35,9.42-2.44,6.84-18.72-6.69-2.53,7.09,16.47,5.89-2.44,6.84-16.47-5.89-2.62,7.34,18.97,6.78-2.44,6.84-26.6-9.51,12.49-34.94Z"/>
          <path class="cls-3" d="M260.94,380l8.93,1.18,6.18,27.18,13.05-24.62,8.72,1.16-19.78,35.06-7.14-.95-9.95-39.01Z"/>
          <path class="cls-3" d="M299.46,384.4l27.92-1.94.5,7.24-19.83,1.38.52,7.51,17.45-1.21.5,7.24-17.45,1.21.54,7.77,20.09-1.4.5,7.24-28.18,1.96-2.57-37.01Z"/>
          <path class="cls-3" d="M330.65,382.09l7.23-2.08,23.02,17.15-6.31-21.95,7.74-2.23,10.25,35.65-6.67,1.92-23.79-17.7,6.52,22.67-7.74,2.23-10.25-35.65Z"/>
          <path class="cls-3" d="M377.69,373.46l-9.97,5.29-3.53-6.65,27.15-14.41,3.53,6.65-9.97,5.29,13.86,26.12-7.21,3.83-13.86-26.12Z"/>
          <path class="cls-3" d="M400.8,374.2l-.07-.08c-6.65-8.18-5.65-20.13,3.24-27.36,8.88-7.22,20.64-5.78,27.29,2.4l.07.08c6.65,8.18,5.65,20.13-3.24,27.36-8.88,7.22-20.64,5.78-27.29-2.4ZM424.78,354.71l-.07-.08c-4.01-4.93-10.97-6.11-16.07-1.96s-5.36,11.05-1.35,15.99l.07.08c4.01,4.93,10.97,6.1,16.07,1.96s5.36-11.05,1.35-15.99Z"/>
          <path class="cls-3" d="M440.98,357.49l-1.31-7.41c4.26-.78,7.85-2.33,10.58-5.57,2.15-2.55,2.44-4.95.77-6.35l-.08-.07c-1.58-1.33-3.21-1.04-8.42,2.68-6.27,4.49-10.96,6.85-16.59,2.1l-.08-.07c-5.15-4.33-5.07-11.34-.19-17.13,3.48-4.14,7.75-6.57,12.48-7.5l1.97,7.2c-3.86,1.05-7,2.63-9.01,5.02-2.01,2.39-1.98,4.57-.6,5.73l.08.07c1.87,1.57,3.5.87,8.88-2.98,6.35-4.49,11.14-6,16.09-1.83l.08.07c5.63,4.75,5.18,11.71.03,17.83-3.62,4.3-8.77,7.37-14.68,8.22Z"/>
        </g>
      </g>
    </g>
  </g>
</svg>